<svg width="61" height="48" viewBox="0 0 61 48" fill="none" xmlns="http://www.w3.org/2000/svg">
<g id="fale-conosco 1" clip-path="url(#clip0_133_7958)">
<g id="Group 14">
<path id="Vector" d="M55.1429 47.9997H5.85714C2.85714 47.9997 0.5 45.5997 0.5 42.5452V40.3634C0.5 39.7088 0.928571 39.2725 1.57143 39.2725H26.2143C26.8571 39.2725 27.2857 39.7088 27.2857 40.3634C27.2857 41.0179 27.7143 41.4543 28.3571 41.4543H32.6429C33.2857 41.4543 33.7143 41.0179 33.7143 40.3634C33.7143 39.7088 34.1429 39.2725 34.7857 39.2725H59.4286C60.0714 39.2725 60.5 39.7088 60.5 40.3634V42.5452C60.5 45.5997 58.1429 47.9997 55.1429 47.9997ZM2.64286 41.4543V42.5452C2.64286 44.3997 4.03571 45.8179 5.85714 45.8179H55.1429C56.9643 45.8179 58.3571 44.3997 58.3571 42.5452V41.4543H35.6429C35.2143 42.7634 34.0357 43.6361 32.6429 43.6361H28.3571C26.9643 43.6361 25.7857 42.7634 25.3571 41.4543H2.64286Z" fill="#12284C"/>
<path id="Vector_2" d="M5.85756 41.454C5.2147 41.454 4.78613 41.0177 4.78613 40.3631V10.9086C4.78613 8.50856 6.7147 6.54492 9.07185 6.54492H14.429C15.0718 6.54492 15.5004 6.98129 15.5004 7.63583C15.5004 8.29038 15.0718 8.72674 14.429 8.72674H9.07185C7.89328 8.72674 6.92899 9.70856 6.92899 10.9086V40.3631C6.92899 41.0177 6.50042 41.454 5.85756 41.454Z" fill="#12284C"/>
<path id="Vector_3" d="M55.1433 41.454C54.5004 41.454 54.0718 41.0177 54.0718 40.3631V10.9086C54.0718 9.70856 53.1076 8.72674 51.929 8.72674H50.8576C50.2147 8.72674 49.7861 8.29038 49.7861 7.63583C49.7861 6.98129 50.2147 6.54492 50.8576 6.54492H51.929C54.2861 6.54492 56.2147 8.50856 56.2147 10.9086V40.3631C56.2147 41.0177 55.7861 41.454 55.1433 41.454Z" fill="#12284C"/>
</g>
<g id="Group 13">
<path id="Vector_4" d="M18.7137 26.1822C15.178 26.1822 12.2852 23.2368 12.2852 19.6368C12.2852 16.0368 15.178 13.0913 18.7137 13.0913C22.2494 13.0913 25.1423 16.0368 25.1423 19.6368C25.1423 23.2368 22.2494 26.1822 18.7137 26.1822ZM18.7137 15.2731C16.3566 15.2731 14.428 17.2368 14.428 19.6368C14.428 22.0368 16.3566 24.0004 18.7137 24.0004C21.0709 24.0004 22.9994 22.0368 22.9994 19.6368C22.9994 17.2368 21.0709 15.2731 18.7137 15.2731Z" fill="white"/>
<path id="Vector_5" d="M27.2856 37.0913C26.6427 37.0913 26.2141 36.6549 26.2141 36.0004V33.8186C26.2141 29.0186 22.357 27.2731 18.7141 27.2731C15.0713 27.2731 11.2141 29.0186 11.2141 33.8186V36.0004C11.2141 36.6549 10.7856 37.0913 10.1427 37.0913C9.49986 37.0913 9.07129 36.6549 9.07129 36.0004V33.8186C9.07129 28.5822 12.9284 25.0913 18.7141 25.0913C24.4999 25.0913 28.357 28.5822 28.357 33.8186V36.0004C28.357 36.6549 27.9284 37.0913 27.2856 37.0913Z" fill="white"/>
<path id="Vector_6" d="M29.4283 28.3636C29.1069 28.3636 28.8926 28.2546 28.6783 28.0364C28.2497 27.6 28.2497 26.9455 28.6783 26.5091L32.964 22.1455C33.1783 21.9273 33.3926 21.8182 33.714 21.8182H43.3569C44.5354 21.8182 45.4997 20.8364 45.4997 19.6364V4.36364C45.4997 3.16364 44.5354 2.18182 43.3569 2.18182H21.9283C20.7497 2.18182 19.7854 3.16364 19.7854 4.36364V14.1818C19.7854 14.8364 19.3569 15.2727 18.714 15.2727C18.0711 15.2727 17.6426 14.8364 17.6426 14.1818V4.36364C17.6426 1.96364 19.5711 0 21.9283 0H43.3569C45.714 0 47.6426 1.96364 47.6426 4.36364V19.6364C47.6426 22.0364 45.714 24 43.3569 24H34.1426L30.1783 28.0364C29.964 28.2546 29.7497 28.3636 29.4283 28.3636Z" fill="white"/>
<path id="Vector_7" d="M25.6784 13.6365C24.8213 13.6365 24.0713 12.8729 24.0713 12.0001C24.0713 11.1274 24.8213 10.3638 25.6784 10.3638C26.5356 10.3638 27.2856 11.1274 27.2856 12.0001C27.2856 12.8729 26.5356 13.6365 25.6784 13.6365ZM25.6784 11.4547C25.357 11.4547 25.1427 11.6729 25.1427 12.0001C25.1427 12.3274 25.357 12.5456 25.6784 12.5456C25.9999 12.5456 26.2141 12.3274 26.2141 12.0001C26.2141 11.6729 25.9999 11.4547 25.6784 11.4547Z" fill="white"/>
<path id="Vector_8" d="M32.6423 13.6365C31.7852 13.6365 31.0352 12.8729 31.0352 12.0001C31.0352 11.1274 31.7852 10.3638 32.6423 10.3638C33.4994 10.3638 34.2495 11.1274 34.2495 12.0001C34.2495 12.8729 33.4994 13.6365 32.6423 13.6365ZM32.6423 11.4547C32.3209 11.4547 32.1066 11.6729 32.1066 12.0001C32.1066 12.3274 32.3209 12.5456 32.6423 12.5456C32.9637 12.5456 33.178 12.3274 33.178 12.0001C33.178 11.6729 32.9637 11.4547 32.6423 11.4547Z" fill="white"/>
<path id="Vector_9" d="M39.6071 13.6365C38.75 13.6365 38 12.8729 38 12.0001C38 11.1274 38.75 10.3638 39.6071 10.3638C40.4643 10.3638 41.2143 11.1274 41.2143 12.0001C41.2143 12.8729 40.4643 13.6365 39.6071 13.6365ZM39.6071 11.4547C39.2857 11.4547 39.0714 11.6729 39.0714 12.0001C39.0714 12.3274 39.2857 12.5456 39.6071 12.5456C39.9286 12.5456 40.1429 12.3274 40.1429 12.0001C40.1429 11.6729 39.9286 11.4547 39.6071 11.4547Z" fill="white"/>
</g>
</g>
<defs>
<clipPath id="clip0_133_7958">
<rect width="60" height="48" fill="white" transform="translate(0.5)"/>
</clipPath>
</defs>
</svg>
