<svg width="61" height="42" viewBox="0 0 61 42" fill="none" xmlns="http://www.w3.org/2000/svg">
<g id="mailing 1" clip-path="url(#clip0_133_7983)">
<g id="Group 16">
<path id="Vector" d="M30.5 31.0225C30.4 31.0225 30.4 31.0225 30.3 31.0225C29.2 30.927 28.2 30.5452 27.5 29.7816L4.8 5.82247C4.4 5.44065 4.4 4.77247 4.8 4.4861C5.2 4.10428 5.8 4.19974 6.2 4.58156L29 28.5407C29.4 28.9225 29.9 29.1134 30.4 29.2088C30.9 29.2088 31.4 29.0179 31.8 28.7316L31.9 28.6361L54.8 4.4861C55.2 4.10428 55.8 4.10428 56.2 4.39065C56.6 4.77247 56.6 5.34519 56.3 5.72701L33.5 29.7816C33.4 29.877 33.3 29.9725 33.2 30.0679C32.4 30.7361 31.5 31.0225 30.5 31.0225Z" fill="white"/>
<path id="Vector_2" d="M28.5 37.2272H16.5C15.9 37.2272 15.5 36.8454 15.5 36.2727C15.5 35.6999 15.9 35.3181 16.5 35.3181H28.5C29.1 35.3181 29.5 35.6999 29.5 36.2727C29.5 36.8454 29.1 37.2272 28.5 37.2272Z" fill="white"/>
<path id="Vector_3" d="M32.5 37.2272H31.5C30.9 37.2272 30.5 36.8454 30.5 36.2727C30.5 35.6999 30.9 35.3181 31.5 35.3181H32.5C33.1 35.3181 33.5 35.6999 33.5 36.2727C33.5 36.8454 33.1 37.2272 32.5 37.2272Z" fill="white"/>
</g>
<g id="Group 17">
<path id="Vector_4" d="M55.5 42H5.5C2.7 42 0.5 39.9 0.5 37.2273V4.77273C0.5 2.1 2.7 0 5.5 0H55.5C58.3 0 60.5 2.1 60.5 4.77273V37.2273C60.5 39.9 58.3 42 55.5 42ZM5.5 1.90909C3.8 1.90909 2.5 3.15 2.5 4.77273V37.2273C2.5 38.85 3.8 40.0909 5.5 40.0909H55.5C57.2 40.0909 58.5 38.85 58.5 37.2273V4.77273C58.5 3.15 57.2 1.90909 55.5 1.90909H5.5Z" fill="#12284C"/>
<path id="Vector_5" d="M58.2996 40.8545C57.9996 40.8545 57.7996 40.7591 57.5996 40.5681L43.3996 27.0136C42.9996 26.6318 42.9996 26.0591 43.3996 25.6772C43.7996 25.2954 44.3996 25.2954 44.7996 25.6772L58.9996 39.2318C59.3996 39.6136 59.3996 40.1863 58.9996 40.5681C58.7996 40.7591 58.5996 40.8545 58.2996 40.8545Z" fill="#12284C"/>
<path id="Vector_6" d="M2.7002 40.8545C2.4002 40.8545 2.2002 40.7591 2.0002 40.5681C1.6002 40.1863 1.6002 39.6136 2.0002 39.2318L16.2002 25.6772C16.6002 25.2954 17.2002 25.2954 17.6002 25.6772C18.0002 26.0591 18.0002 26.6318 17.6002 27.0136L3.4002 40.5681C3.2002 40.7591 2.9002 40.8545 2.7002 40.8545Z" fill="#12284C"/>
</g>
</g>
<defs>
<clipPath id="clip0_133_7983">
<rect width="60" height="42" fill="white" transform="translate(0.5)"/>
</clipPath>
</defs>
</svg>
