<svg width="60" height="60" viewBox="0 0 60 60" fill="none" xmlns="http://www.w3.org/2000/svg">
<g id="icon">
<g id="Group">
<path id="Vector" d="M11.25 18.9233C11.25 18.4337 11.4475 17.9641 11.7992 17.6179C12.1508 17.2717 12.6277 17.0771 13.125 17.0771H39.375C39.8723 17.0771 40.3492 17.2717 40.7008 17.6179C41.0525 17.9641 41.25 18.4337 41.25 18.9233C41.25 19.4129 41.0525 19.8825 40.7008 20.2287C40.3492 20.575 39.8723 20.7695 39.375 20.7695H13.125C12.6277 20.7695 12.1508 20.575 11.7992 20.2287C11.4475 19.8825 11.25 19.4129 11.25 18.9233Z" fill="white"/>
<path id="Vector_2" d="M31.875 28.1536C31.3777 28.1536 30.9008 28.3481 30.5492 28.6943C30.1975 29.0405 30 29.5101 30 29.9997C30 30.4893 30.1975 30.9589 30.5492 31.3051C30.9008 31.6514 31.3777 31.8459 31.875 31.8459H39.375C39.8723 31.8459 40.3492 31.6514 40.7008 31.3051C41.0525 30.9589 41.25 30.4893 41.25 29.9997C41.25 29.5101 41.0525 29.0405 40.7008 28.6943C40.3492 28.3481 39.8723 28.1536 39.375 28.1536H31.875Z" fill="white"/>
<path id="Vector_3" d="M30 41.0769C30 40.5872 30.1975 40.1177 30.5492 39.7714C30.9008 39.4252 31.3777 39.2307 31.875 39.2307H39.375C39.8723 39.2307 40.3492 39.4252 40.7008 39.7714C41.0525 40.1177 41.25 40.5872 41.25 41.0769C41.25 41.5665 41.0525 42.0361 40.7008 42.3823C40.3492 42.7285 39.8723 42.923 39.375 42.923H31.875C31.3777 42.923 30.9008 42.7285 30.5492 42.3823C30.1975 42.0361 30 41.5665 30 41.0769Z" fill="white"/>
<path id="Vector_4" d="M13.125 28.1536C12.6277 28.1536 12.1508 28.3481 11.7992 28.6943C11.4475 29.0405 11.25 29.5101 11.25 29.9997V41.0766C11.25 41.5663 11.4475 42.0358 11.7992 42.3821C12.1508 42.7283 12.6277 42.9228 13.125 42.9228H24.375C24.8723 42.9228 25.3492 42.7283 25.7008 42.3821C26.0525 42.0358 26.25 41.5663 26.25 41.0766V29.9997C26.25 29.5101 26.0525 29.0405 25.7008 28.6943C25.3492 28.3481 24.8723 28.1536 24.375 28.1536H13.125ZM15 39.2305V31.8459H22.5V39.2305H15Z" fill="white"/>
<path id="Vector_5" d="M0 13.3846C0 11.4261 0.790176 9.54779 2.1967 8.1629C3.60322 6.77802 5.51088 6 7.5 6H45C46.9891 6 48.8968 6.77802 50.3033 8.1629C51.7098 9.54779 52.5 11.4261 52.5 13.3846V17.0769C54.4891 17.0769 56.3968 17.8549 57.8033 19.2398C59.2098 20.6247 60 22.503 60 24.4615V44.7692C60 47.2174 59.0123 49.5653 57.2541 51.2964C55.496 53.0275 53.1114 54 50.625 54H9.375C6.8886 54 4.50403 53.0275 2.74587 51.2964C0.98772 49.5653 0 47.2174 0 44.7692V13.3846ZM48.75 13.3846C48.75 12.4054 48.3549 11.4662 47.6516 10.7738C46.9484 10.0813 45.9946 9.69231 45 9.69231H7.5C6.50544 9.69231 5.55161 10.0813 4.84835 10.7738C4.14509 11.4662 3.75 12.4054 3.75 13.3846V44.7692C3.75 46.2381 4.34263 47.6469 5.39752 48.6855C6.45242 49.7242 7.88316 50.3077 9.375 50.3077H50.625C52.1168 50.3077 53.5476 49.7242 54.6025 48.6855C55.6574 47.6469 56.25 46.2381 56.25 44.7692V24.4615C56.25 23.4823 55.8549 22.5431 55.1517 21.8507C54.4484 21.1582 53.4946 20.7692 52.5 20.7692V44.7692C52.5 45.2589 52.3025 45.7284 51.9508 46.0747C51.5992 46.4209 51.1223 46.6154 50.625 46.6154C50.1277 46.6154 49.6508 46.4209 49.2992 46.0747C48.9475 45.7284 48.75 45.2589 48.75 44.7692V13.3846Z" fill="#12284C"/>
</g>
</g>
</svg>
